<?xml version="1.0" encoding="UTF-8"?>
<svg id="Layer_1" data-name="Layer 1" xmlns="http://www.w3.org/2000/svg" viewBox="0 0 1898.07 531.24">
  <defs>
    <style>
      .cls-1 {
        fill: none;
        stroke: #ffe6c2;
        stroke-width: 3px;
      }

      .cls-1, .cls-2 {
        stroke-miterlimit: 10;
      }

      .cls-3 {
        fill: #fff;
      }

      .cls-4 {
        fill: #4a82d3;
      }

      .cls-5 {
        fill: #fdc87a;
      }

      .cls-6 {
        fill: #6bb2aa;
      }

      .cls-7 {
        fill: #f99746;
      }

      .cls-8 {
        fill: #905072;
      }

      .cls-9 {
        fill: #3d8b8f;
      }

      .cls-10 {
        fill: #c8d9e8;
      }

      .cls-2 {
        fill: #86b2f3;
        stroke: #fff;
        stroke-width: 4px;
      }

      .cls-11 {
        fill: #aa443e;
      }

      .cls-12 {
        fill: #d86c7b;
      }

      .cls-13 {
        fill: #f18582;
      }

      .cls-14 {
        fill: #c65447;
      }

      .cls-15 {
        fill: #1f396d;
      }

      .cls-16 {
        fill: #ebf2f9;
      }

      .cls-17 {
        fill: #35488b;
      }

      .cls-18 {
        fill: #739af0;
      }

      .cls-19 {
        fill: #0f2949;
      }

      .cls-20 {
        fill: #2c3a64;
      }

      .cls-21 {
        fill: #ed985f;
      }

      .cls-22 {
        fill: #b2443b;
      }

      .cls-23 {
        fill: #e8945b;
      }

      .cls-24 {
        fill: #ed7d2b;
      }

      .cls-25 {
        fill: #e6747e;
      }

      .cls-26 {
        fill: #ffb27d;
      }

      .cls-27 {
        fill: #f2a2ae;
      }

      .cls-28 {
        fill: #b25c75;
      }

      .cls-29 {
        fill: #233862;
      }

      .cls-30 {
        fill: #163560;
      }

      .cls-31 {
        fill: #2b478b;
      }
    </style>
  </defs>
  <path class="cls-9" d="m154.77,512.91c16.24-8.57,32.47-17.13,48.71-25.7-25.08-14.39-50.16-28.78-75.24-43.17,2.74,35.86,22.65,67.47,58.06,78.91,29.52,9.54,58.5-.25,81.59-18.86,5.99-4.83,10.86-14.8,12.86-22.06,3-10.89,1.82-22.28-2.52-32.56-7.05-16.7-26.22-32.8-45.69-30.74-3.94.42-7.72.43-11.66.02l13.29,1.79c-3.82-.59-7.41-1.52-11.03-2.87l11.94,5.04c-2.09-.9-4.15-1.84-6.11-2.99-1.31-.77-2.57-1.6-3.79-2.49,6.69,5.42,8.61,6.81,5.76,4.18-1.38-1.54-7.18-8.29-1.37-.97,5.88,7.41.14-.91-.85-2.94l5.04,11.94c-1.86-4.42-3.07-8.81-3.72-13.57l1.79,13.29c-.32-3.89-.25-7.63.22-11.5l-1.79,13.29c.67-3.84,1.67-7.43,3.09-11.05l-5.04,11.94c1.25-2.75,3.38-5.37,4.46-8.12-5.59,6.89-6.71,8.44-3.36,4.65,1.1-1.16,2.27-2.25,3.49-3.28-16.22,4.29-32.43,8.57-48.65,12.86,4.46,1.2,8.81,2.69,13.09,4.43l-11.94-5.04c4.31,1.84,8.52,3.88,12.56,6.26,2.63,1.55,5.1,3.68,7.79,5.07-6.8-5.39-8.19-6.46-4.18-3.19,1.01.84,1.99,1.71,2.96,2.61,2.38,2.18,4.49,4.58,6.78,6.84,6.67,6.57-6.36-9.54.27.26,3.59,5.3,6.56,10.92,9.13,16.78l-5.04-11.94c2.12,5.16,3.87,10.41,5.21,15.82,9.17,37.08,57.33,47.8,83.57,22.06,41.98-41.17,66.6-99.1,64.11-158.17-32.74,4.43-65.48,8.86-98.21,13.29.8,3.34,1.43,6.68,1.93,10.08l-1.79-13.29c.87,7.25.91,14.36.14,21.62l1.79-13.29c-1.11,8.08-3.02,15.82-6.03,23.4l5.04-11.94c-7.58,17.83-20.51,33.35-23.65,52.98-3.32,20.74-1.12,39.4,8.54,58.27,7.26,14.19,19.12,26.23,32.5,34.75,34.74,22.13,82.24,8.73,100.56-28.07,7.29-14.65,12.74-30.54,18.87-45.72,5.67-14.04,11.34-28.08,17.02-42.12l-61.51,34.92,1.63.61-11.94-5.04c1,.42,1.94.93,2.84,1.53-4.53-2.33-8.11-5.6-10.75-9.82-5.99-7.92-1.93-2.36-.88.1l-5.04-11.94c.93,2.63,1.5,5.24,1.92,7.99l-1.79-13.29c2.08,17.63-.4,35.86,5.23,53.07,10.53,32.18,37.26,52.87,71.13,54.6,25.43,1.3,52.81-10.17,68.72-30.2,19.06-23.99,25.98-50.75,27.33-81,.94-20.98-16.12-43.52-36.71-48.21-8.79-2-17.79-2-26.58,0-10.82,2.46-25.11,12.69-29.88,22.98-7.41,15.98-12.65,32.3-11.85,50.22s5.17,34.33,13.7,49.91c17.21,31.45,49.95,48.75,84.88,51.03,28.13,1.83,59.8-10.45,78.66-31.5,13.22-14.75,22.86-33.25,22.72-53.53-.18-27.95-19.88-54.69-46.98-62.18-30.49-8.43-61.22,9.24-73.11,37.42-8.19,19.4-5.12,42.44,10.18,57.74,9.26,9.26,23.43,15.48,36.45,15.27,6.41-.1,12.84-1.53,19.2-2.41l-13.29,1.79c1.09-.09,2.17-.04,3.24.14l-13.29-1.79c1.06.19,2.09.49,3.08.91l-11.94-5.04c1.03.44,2.01.96,2.95,1.57-7.64-6.22-9.6-7.71-5.88-4.47,1.59,1.67,3.22,3.27,4.75,5,3.46,3.94,6.58,8.17,10.07,12.08,9.93,11.11,22.42,19.22,36.59,23.75,30.33,9.7,61.08-1.03,88.74-13.31l-38.53,5.04c11.37,4.61,22.71,9.29,34.02,14.05,14.48,6.1,38.97-.57,48.65-12.86,4.97-6.31,9.95-12.62,14.92-18.93,6.53-8.28,12.94-15.31,15.84-25.85,2-7.28,1.3-13.02,2.05-19.91l-1.79,13.29c.11-.91.36-1.77.73-2.6l-5.04,11.94.53-.76c-5.98,5.98-11.96,11.96-17.94,17.94l.65-.4-25.24,6.83.58-.06-13.29-1.79.65.16-11.94-5.04c4.13,2.2-9.03-7.1-7.77-6.02,4.79,4.09-7.23-10.5-4.3-5.49,1.92,3.28,3.91,6.49,5.72,9.84,10.08,18.66,36.07,29.58,56.47,22.98,20.36-6.59,37.69-25.69,36.71-48.21-.42-9.51-.02-18.95,1.11-28.4l-1.79,13.29c.51-3.67,1.1-7.32,1.8-10.96l-61.51,34.92c13.63,1.99,25.55,3.2,38.88-1.5,11.84-4.18,21.68-9.99,30.57-19.09,18.17-18.61,24.72-45.02,18.55-70.09-2.83-11.49-12.45-24.32-22.98-29.88-12.55-6.63-24.58-7.42-38.53-5.04-15.21,2.59-30.41,5.18-45.62,7.78-36.04,6.14-49.37,60.4-22.06,83.57,16.91,14.35,35.48,24.04,58.03,25.03,20.15.88,40.21-7.63,54.57-21.54,11.66-11.3,20.29-27.51,22.86-43.52,3.72-23.16.17-42.63-9.7-63.8-26.18,20.2-52.35,40.39-78.53,60.59,1.97,1.84,3.9,3.71,5.76,5.67,1.6,1.68,9.59,11.47,3.68,3.87-5.31-6.82-1.56-1.91-.47-.3,1.16,1.72,2.27,3.46,3.32,5.25,2.25,3.85,4.18,7.85,5.93,11.95l-5.04-11.94c2.86,7.28,4.84,14.65,6,22.38l-1.79-13.29c1.24,10.1.46,20.14,1.19,30.24,1.52,21.11,10.04,40.61,28.98,51.67,18.47,10.79,39.32,9.06,58.2,1.09,17.16-7.24,31.17-18.2,45.75-29.75,19.06-15.1,36.79-31.89,54.2-48.83-26.18-20.2-52.35-40.39-78.53-60.59-9.35,18.8-19.09,37.67-31.21,54.86-.94,1.33-2,2.62-2.88,3.98,9.31-14.24,6.93-8.69,4.18-5.48-1.88,2.2-3.74,4.39-5.81,6.42-5.06,4.96-8.19,3.29,4.97-3.37-1.56.79-2.92,1.93-4.54,2.68l11.94-5.04c-1.3.54-2.58.94-3.97,1.14l13.29-1.79c-.85.08-1.67.08-2.52,0l13.29,1.79c-.68-.11-1.25-.27-1.93-.47l11.94,5.04c-4.6-1.95-3.39-4.17,6.53,5.61-1.67-1.64-4.35-5.19,1.6,2.42,6.58,8.42,1.3.89.06-2l5.04,11.94c-4.82-12.16-5.84-25.11-8.81-37.73-3.45-14.67-12.23-28.26-25.48-35.9-15.48-8.91-35.66-8.96-51.12.09-12.15,7.11-20.03,18.77-24.38,31.92-6.79,20.52-6.36,46.02,2.03,65.89,9.29,22.02,28.6,37.2,53.27,37.88,18.35.51,33.31-8.49,47.65-18.57,13.33-9.38,27.5-17.45,42.45-23.97l-11.94,5.04c12.24-5.16,24.81-9.12,37.95-11.16l-13.29,1.79c9.48-1.26,18.83-1.33,28.31-.17l-13.29-1.79c6.76.91,13.32,2.44,19.67,4.98l-11.94-5.04c1.76.78,3.5,1.57,5.18,2.53,5.51,3.14,2.33,4.45-3.76-3.36l1.44,1.33c3.33,3.59,2.01,1.74-3.99-5.55.7,1.79,2.03,3.48,2.84,5.27l-5.04-11.94c1.19,3.13,1.97,6.23,2.48,9.53l-1.79-13.29c.44,4.14.39,8.14-.14,12.28l1.79-13.29c-.6,3.33-1.47,6.42-2.78,9.54l5.04-11.94c-4.55,9.18,5.47-5.37,3.19-3.14-2.48,2.43,12.61-7.44,3.47-3.21l11.94-5.04c-1.55.62-3.16,1.03-4.83,1.22l13.29-1.79c-1.6.18-3.19.18-4.79.01l13.29,1.79c-3.05-.45-5.84-1.21-8.72-2.3l11.94,5.04c-3.05-1.35-5.95-2.89-8.66-4.83-8.85-6.33-21.63-7.31-31.88-5.93-10.81,1.45-20.86,5.83-28.71,13.75-14.31,14.44-23.65,36.67-17.07,56.99,4.91,15.19,15.39,27.5,30.1,33.71,9.61,4.06,18.74,4.89,29.13,6.28l-13.29-1.79c13.17,2.09,25.84,5.47,39.3,6.18,16.31.86,32.55-1.09,48.63-3.74,23.62-3.88,46.84-13.03,67.73-24.56,13.34-7.37,25.93-16.56,37.4-26.56,4.56-3.98,8.81-8.31,12.67-12.97,5.05-6.12,9.9-12.51,14.5-18.98-6.36,7.99-8.02,10.19-5,6.59.63-.71,1.29-1.39,1.98-2.03-5.63,8.63-10.9,7.09-3.89,3.83l-11.94,5.04c2.41-.94,4.8-1.59,7.34-2.09l-13.29,1.79c3.24-.43,6.34-.48,9.59-.16l-13.29-1.79c3.75.58,7.25,1.58,10.78,2.96l-11.94-5.04c12.84,5.54,23.35,15.05,35.99,20.94,22.82,10.63,47.85,12.17,69.87-1.43,24.45-15.1,36.57-43.6,43.2-70.38,12.1-48.88,13.74-101.12,13.87-151.29.03-12,.72-24.49-.54-36.45-1.42-13.62-4.63-25.34-14.64-35.36-8.67-8.67-22.9-15.2-35.36-14.64s-26.34,4.83-35.36,14.64c-9.42,10.26-13.41,21.48-14.64,35.36-1.43,16.02-.48,32.62-.72,48.71-.26,17.86-.52,35.71-.79,53.57-.52,35.17-1.03,70.34-1.55,105.51-.12,8.12-.24,16.23-.36,24.35-.17,11.76-2.2,26.44,1.43,37.64,13.32,41.16,66.95,51.02,96.22,20.43,15.51-16.21,20.79-35.38,25.44-56.5,3.84-17.44,7.69-34.88,11.53-52.33,8.5-38.58,17.01-77.17,25.51-115.75h-96.43c3.04,10.97,5.33,22.06,6.88,33.34l-1.79-13.29c2.57,20.65,2.48,41.26-.13,61.9l1.79-13.29c-4.28,31.62-10.72,62.98-1.9,94.51s32.61,63.26,65.91,69.6c53.14,10.13,105.58-31.02,118.86-81.41,5.38-20.4,5.12-40.21,1.77-60.74-32.14,8.86-64.29,17.72-96.43,26.58,7.89,21.33,16.9,43.56,19.96,66.25l-1.79-13.29c.27,2.47.44,4.9.21,7.37.6-4.43,1.19-8.86,1.79-13.29-.14.87-.31,1.64-.6,2.47l5.04-11.94c-3.83,7.64,1.62,2.29,16.36-16.02l11.94-5.04-.81.29,13.29-1.79c-.64.11-1.27.09-1.91-.07l13.29,1.79-1.07-.32,11.94,5.04c-4.87-2.08-6.88-6.48,4.08,4.06-1.41-1.35-2.92-2.57-4.27-3.98-4.26-4.43-2.47-7.12,3.26,4.69-.67-1.38-1.66-2.54-2.27-3.97l5.04,11.94-.2-.73,1.79,13.29-.03-.6-1.79,13.29.15-.44c-4.29,7.35-8.57,14.71-12.86,22.06-3.22,2.51-6.44,5.01-9.66,7.52l-25.24,6.83c.25-.05.49-.06.74-.01l-13.29-1.79c.8.16,1.53.44,2.29.75l-11.94-5.04c6.99,3.18,13.51,7.48,20.29,11.08,13.79,7.33,28.35,13.84,43.27,18.48,16.12,5.02,33.95,7.94,50.84,7.07,12.67-.65,24.54-1.88,37.28-.23l-13.29-1.79c9.71,1.34,19.42,3.02,29.2,3.73,9.89.71,19.5-.52,29.3-1.84,17.37-2.33,34.2-6.05,50.54-12.48,8.75-3.45,17.75-6.91,26.13-11.27,12.01-6.25,20.45-17.52,27.24-29,11.55-19.53,17.07-41.84,17.96-64.37-32.74,4.43-65.48,8.86-98.21,13.29,4.13,17.93,10.42,38.3,24.33,51.25,18.89,17.6,47.23,22.59,69.7,8.33,28.43-18.06,38.62-55.15,47.41-85.58,6.93-24.01-6.5-49.51-28.95-58.99-21.16-8.93-51.82-2.12-62.44,20.46-12.8,27.23-20.75,59.36-10.92,89.05,8.64,26.09,28.29,48.55,56.02,54.62,49.99,10.93,97.47-17.17,123.25-59.2,13.07-21.31,6.29-49.69-12.88-64.5-20.64-15.95-46.43-12.46-65.65,3.91-16.22,13.81-32.45,27.63-48.67,41.44-15.09,12.85-17.52,37.59-10.34,54.62,3.47,8.22,8.34,14.54,15.4,20,9.53,7.36,18.32,9.19,30.3,10.74,15.23,1.97,30.47,3.93,45.7,5.9l-25.24-6.83c23.93,11,53.8,24.5,79.02,8.1,26.22-17.05,32.5-49.89,16.6-76.12-16.36-26.98-42.98-48.95-66.06-69.84-19.39-17.55-51.82-20.57-70.71,0-17.57,19.14-20.71,51.96,0,70.71,14.02,12.69,27.99,25.52,41.09,39.17,4.16,4.34,8.13,8.81,12,13.4s-8.85-13.02-3.67-4.55c.88,1.43,1.75,2.81,2.45,4.35l-5.04-11.94c.29.73.53,1.44.69,2.22l-1.79-13.29c.05.46.07.85.02,1.3l1.79-13.29c-.04.24-.11.48-.22.7l5.04-11.94,16.78-16.87,11.94-5.04c-.49.21-1.01.33-1.54.36l13.29-1.79c-.7.05-1.4.04-2.1-.04,4.43.6,8.86,1.19,13.29,1.79-5.69-.78-11.09-3.02-16.37-5.2l11.94,5.04c-2.2-.95-4.38-1.94-6.57-2.91-9.81-4.37-16.42-6.12-26.63-7.47-5.08-.67-10.16-1.31-15.23-1.97-10.16-1.31-20.31-2.62-30.47-3.93,11.79,28.45,23.57,56.9,35.36,85.36,16.22-13.81,32.45-27.63,48.67-41.44-26.18-20.2-52.35-40.39-78.53-60.59-1.11,1.8-2.32,3.54-3.44,5.33-3.12,5.04,8.09-9.2,2.63-3.38-2.64,2.81-5.24,5.52-8.06,8.16-5.04,4.73,4.76-4.08,5.02-3.73.05.08-3.89,2.65-4.36,2.95-3.14,1.96-6.39,3.62-9.77,5.1l11.94-5.04c-5.12,2.08-10.33,3.55-15.81,4.34l13.29-1.79c-3.82.42-7.53.49-11.35.12l13.29,1.79c-3.41-.46-6.6-1.25-9.79-2.55l11.94,5.04c-5.69-2.65-6.92-6.88,3.1,3.27-4.26-4.32,4.26,5.64,4.21,5.91.06-.33-2.68-4.71-2.89-5.14l5.04,11.94c-1.71-4.09-2.77-8.19-3.45-12.57l1.79,13.29c-.65-5.88-.52-11.56.2-17.43l-1.79,13.29c1.05-6.56,2.77-12.74,5.17-18.93l-5.04,11.94c.75-1.85,1.57-3.67,2.45-5.47-30.46-12.84-60.92-25.69-91.39-38.53-3.41,11.8-7.07,23.52-11.71,34.9l5.04-11.94c-2.04,4.83-4.35,9.4-6.94,13.96-4.24,7.46,6.96-8.15,4.16-5.23-5.37,5.61,11.85-7.45,5.92-4.65l11.94-5.04c-.44.18-.89.32-1.35.4l13.29-1.79c-.44.08-.88.1-1.33.07l13.29,1.79c-.61-.05-1.2-.19-1.77-.43l11.94,5.04c-4-2.09-1.48-.07,7.54,6.05-3.1-3.35-1.32-1.02,5.34,6.99-.52-2-2.32-4.33-3.16-6.28l5.04,11.94c-2.53-6.43-4.27-13.06-5.82-19.79-5.59-24.25-31.36-38.97-54.86-35.81-25.02,3.36-42.37,23.99-43.35,49.11-.1,2.67-.31,5.31-.6,7.96l1.79-13.29c-.98,7.11-2.74,13.88-5.3,20.58l5.04-11.94c-2.61,6.11-6.11,11.21-9.36,16.89,7.86-13.77,19.84-16.47,10.21-11.96-2.48,1.16-4.99,2.26-7.51,3.33l11.94-5.04c-15.46,6.39-31.46,10.82-48.01,13.26l13.29-1.79c-10.17,1.33-20.03,1.43-30.2.16,4.43.6,8.86,1.19,13.29,1.79-15.18-2.05-30.44-5.06-45.83-3.98-10.84.76-20.99,1.76-31.91.3l13.29,1.79c-11.65-1.83-22.76-5.28-33.62-9.83l11.94,5.04c-17.01-7.38-32.65-19.35-50.49-24.7-37.92-11.38-73.29,25.41-63.3,62.76,3.69,13.81,13.39,26.99,24.16,36.18,19.95,17.01,46.39,25.92,70.89,11.35,18.49-10.99,27.82-32.13,26.4-53.16-1.89-27.95-12.29-54.98-21.91-80.98-4.61-12.46-11.18-22.98-22.98-29.88-10.72-6.27-26.51-8.93-38.53-5.04s-23.77,11.41-29.88,22.98c-6.65,12.59-7.32,24.54-5.04,38.53.06.37.12.74.17,1.12l-1.79-13.29c1.06,7.93.91,15.97-.12,23.89l1.79-13.29c-.97,6.42-2.59,12.59-5.05,18.61l5.04-11.94c-1.14,2.57-2.36,5.08-3.81,7.49-3.02,5.02-5.59,4.2,2.73-2.95-2.61,2.25-4.94,5.06-7.5,7.43-4.69,4.33,7.67-5.7,7.12-5.43-1.62.82-3.12,2.28-4.64,3.29-3.52,2.32-7.2,4.3-11.05,6.01l11.94-5.04c-3.67,1.49-7.33,2.59-11.25,3.22l13.29-1.79c-2.65.28-5.15.3-7.8.04l13.29,1.79c-2.03-.36-3.82-.84-5.77-1.53l11.94,5.04c-1.96-.89-3.74-2.42-5.68-3.22,6.9,5.59,8.49,6.7,4.77,3.32-.83-.81-1.62-1.66-2.37-2.55-3.47-3.53,7.56,11.31,2.4,2.54-1.41-2.39-2.58-4.86-3.69-7.39l5.04,11.94c-2.37-6.01-3.93-12.11-4.89-18.49l1.79,13.29c-1.43-11.84-.51-23.62.97-35.41l-1.79,13.29c3.25-24.1,7.54-48.03,6.94-72.43-.59-23.94-4.19-48.24-10.59-71.33-5.65-20.38-26.41-37.68-48.21-36.71-21.24.95-43.37,14.71-48.21,36.71-7.22,32.77-14.44,65.54-21.66,98.31-3.49,15.86-6.99,31.71-10.48,47.57s-5.1,32.89-11.22,47.46l5.04-11.94c-2.37,4.74-5.77,6.64,3.01-2.49-5.49,5.72,10.87-6.48,4-3.06l11.94-5.04-1.62.47,13.29-1.79-1.62.11,13.29,1.79-1.61-.28,11.94,5.04c-1.18-.39-2.22-1.01-3.12-1.88,8.25,14.39,16.51,28.78,24.76,43.17.63-43.29,1.27-86.57,1.9-129.86.31-21.1.62-42.21.93-63.31.31-20.91-.93-42.5.93-63.32h-100c1.61,15.38.64,31.51.46,46.93-.36,31.32-1.77,62.73-5.86,93.8l1.79-13.29c-2.52,18.67-5.75,37.77-13.08,55.23l5.04-11.94c-1,2.3-2.05,4.57-3.27,6.76-1.45,2.63-7.36,10.55-.25,1.34,6.86-8.88,1.52-2.59-.42-.45,6.79-7.5,11.97-7.6,4.68-4.43l11.94-5.04c-1.38.53-2.7.86-4.16,1.11l13.29-1.79c-1.45.13-2.77.14-4.22.04l13.29,1.79c-2.49-.35-4.78-1.01-7.12-1.9l11.94,5.04c-19.33-8.36-33.66-23.39-55.04-28.28-20.06-4.59-40.74-3.02-59.13,6.63-13.68,7.18-21.99,18.02-30.94,30.16-5.56,7.54,3.27-2.95,3.1-3.94.22,1.3-5.7,6.4-6.61,7.32-1.58,1.58-3.21,3.11-4.87,4.6-4.15,3.73-14.8,10.51,2.32-1.41-11.83,8.23-23.71,15.6-37,21.36l11.94-5.04c-14.2,5.97-28.95,10.09-44.21,12.26l13.29-1.79c-13.25,1.69-26.83,2.15-40.11.44l13.29,1.79c-11.85-2.13-23.24-4.58-35.33-6.09l13.29,1.79c-1.53-.13-2.97-.55-4.32-1.26,7.35,4.29,14.71,8.57,22.06,12.86l-1.15-1.31c4.88,11.79,9.76,23.57,14.64,35.36l-.2-1.54-1.79,13.29.48-1.65-5.04,11.94c3.83-6.79-7.72,8.84-3.89,4.97-20.2,2.61-40.39,5.21-60.59,7.82,34.75,24.87,84.42,15.07,105.84-21.91,18.86-32.56,13.15-79.09-14.63-104.82-20.91-19.37-49.27-26.57-77.11-27.5-31.18-1.04-61.6,9.53-89.29,22.85-8.83,4.25-17.39,9.1-25.62,14.42s-15.93,12.1-24.86,16.38l11.94-5.04c-1.15.51-2.34.88-3.58,1.1l13.29-1.79c-1.1.19-2.19.17-3.28-.06,4.43.6,8.86,1.19,13.29,1.79l-1.53-.54,11.94,5.04c6.02,3.46,7.52,5.84,10.63,9.79,5.51,6.98,3.14,4.17,2.06,1.64l5.04,11.94c-.85-2.41-1.39-4.82-1.78-7.35l1.79,13.29c-.64-5.47-.55-10.9.06-16.37l-1.79,13.29c.44-3.28,1-6.53,2.21-9.62l-5.04,11.94c1.68-3.55-8.47,9.72-6.42,8.09-7.35,4.29-14.71,8.57-22.06,12.86l.36-.12-13.29,1.79.29.03-25.24-6.83c-23.67-12.58-20.29-24.53-16.62-16.11l-5.04-11.94c4.93,13.47,4.86,28.35,10,41.92,6.42,16.95,15.46,32.1,31.77,41.39,13.69,7.79,30.38,9.7,45.56,5.61,17.41-4.69,31.66-16.79,42.6-30.65,17.19-21.76,30.51-45.39,42.85-70.19,11.2-22.52,7.63-48.66-12.88-64.5-19.69-15.21-47.64-13.61-65.65,3.91-16.75,16.29-33.79,32.41-52.01,47.07-3.22,2.59-10.67,7.9,3.73-2.8-1.32.98-2.63,1.99-3.96,2.97-2.73,2.01-5.5,3.96-8.33,5.82-4.21,2.76-8.56,5.32-13.17,7.36l11.94-5.04c-2.41,1.01-4.85,1.86-7.43,2.26l13.29-1.79c-1.19.15-2.35.19-3.55.05l13.29,1.79c-.7-.12-1.36-.29-2.03-.54l11.94,5.04c-.35-.16-.71-.32-1.03-.54l9.02,6.94c6.17,9.16,8.2,11.66,6.11,7.52l5.04,11.94c-.42-1.17-.69-2.25-.91-3.47l1.79,13.29c-.9-7.21-.17-14.55-.5-21.79-.62-13.82-2.43-28.23-7.08-41.33-8.48-23.88-21.85-45.41-40.46-62.75-18.33-17.08-45.62-19.38-65.65-3.91-20.81,16.07-23.58,41.55-12.88,64.5l1.2,2.58-5.04-11.94c1.68,4.22,2.81,8.37,3.46,12.85l-1.79-13.29c.28,3.32.29,6.51,0,9.84l1.79-13.29c-.57,3.86-1.5,7.44-2.95,11.06l5.04-11.94c-.62,1.31-1.37,2.56-1.97,3.88-3.1,6.82,7.09-8.23,3.44-4.33-1.42,1.52-5.68,4.86,1.3-.7s2.33-2.08.05-1.06l11.94-5.04c-2.23.76-4.21,1.22-6.54,1.54l13.29-1.79c-2.4.12-4.56.03-6.94-.24l13.29,1.79c-3.29-.64-6.29-1.58-9.38-2.87l11.94,5.04c-3.93-1.95-12.25-9.12-.82.57-7.35,27.86-14.71,55.71-22.06,83.57,15.21-2.59,30.41-5.18,45.62-7.78l-61.51-34.92.51,2.07-1.79-13.29c.28,2.19.32,4.04.14,6.25l1.79-13.29c-.4,2.15-.93,3.99-1.71,6.03l5.04-11.94c-4.68,9.59,4.68-4.46,2.45-2.26-2.34,2.31,11.94-7.15,2.37-2.35l11.94-5.04c-2.04.8-3.85,1.32-6,1.72l13.29-1.79c-1.39.18-2.79.21-4.18.09l13.29,1.79-2.11-.31c-13.23-1.93-26.61-2.64-38.53,5.04-10.44,6.73-20.57,17.22-22.98,29.88-3.3,17.33-5.47,34.99-4.7,52.65,31.06-8.41,62.12-16.82,93.17-25.24-9.45-17.49-21.93-34-42.12-39.41-22.21-5.95-45.9,3.81-57.69,23.43-6.44,10.72-8.47,22.86-8.36,35.21,4.88-11.79,9.76-23.57,14.64-35.36-5.97,7.57-11.94,15.15-17.9,22.72,16.22-4.29,32.43-8.57,48.65-12.86-7.85-3.3-15.71-6.58-23.59-9.8-5.89-2.41-10.66-4.28-17.08-5.14-9.15-1.23-17.4-.18-25.91,3.41-3.88,1.64-7.73,3.32-11.61,4.97l11.94-5.04c-8.2,3.29-16.51,6.01-25.27,7.29l13.29-1.79c-4.38.51-8.67.63-13.05.08l13.29,1.79c-2.53-.42-4.94-1.04-7.34-1.96l11.94,5.04c-1.37-.59-2.95-1.93-4.34-2.24-1.63-.36,8.16,7.27,5.97,4.62-1.04-1.25-2.43-2.3-3.56-3.5-4.3-4.57-7.95-9.7-12.13-14.37-5.83-6.53-13.02-12.39-20.64-16.62-16.28-9.03-31.99-8.6-49.8-5.83l13.29-1.79h-1.71c8.41,2.29,16.82,4.56,25.24,6.84l-1.09-.63,22.98,29.88-.26-.8,1.79,13.29.06-1.06-1.79,13.29.36-1.26-5.04,11.94c.39-1.01.89-1.95,1.51-2.84-3,5.38-7.12,9.69-12.34,12.95l-11.94,5.04c1.18-.59,2.42-.94,3.74-1.05l-13.29,1.79,2.23.11-13.29-1.79,2.11.6-11.94-5.04c4.59,2.64,3.03.78-4.68-5.58-6.48-7.61-8.34-9.19-5.56-4.75l-5.04-11.94c.63,1.25,1.07,2.57,1.31,3.96l-1.79-13.29c.23,1.39.27,2.79.12,4.2l1.79-13.29c-.35,2.17-.85,3.99-1.62,6.05l5.04-11.94c-1.13,2.45-2.63,4.54-3.91,6.88,6.41-11.76,7.01-8.92,3.55-4.98-6.4,7.3,10.24-6.14,2.76-1.8-2.6,1.51-5.1,3.01-7.84,4.28l11.94-5.04c-4.92,2.04-9.82,3.39-15.08,4.19l13.29-1.79c-5.29.59-10.4.57-15.68-.09l13.29,1.79c-4.47-.74-8.69-1.9-12.91-3.56l11.94,5.04c-2.77-1.23-5.27-2.71-7.9-4.19-7.15-4.03,10.6,8.83,1.54.62-3.31-3.76-2.13-2.11,3.55,4.95-.87-1.21-1.7-2.46-2.47-3.73-1.55-2.58-2.81-5.27-3.98-8.03l5.04,11.94c-1.6-4.25-2.74-8.51-3.49-13l1.79,13.29c-.66-5.28-.69-10.36-.06-15.64l-1.79,13.29c.73-4.48,1.9-8.68,3.61-12.89l-5.04,11.94.95-2.04c-31.06-8.41-62.12-16.82-93.17-25.24-.19,4.26-.51,8.5-1.01,12.74l1.79-13.29c-1.06,7.62-2.76,14.96-5.62,22.11l5.04-11.94c-1.03,2.3-2.21,4.42-3.34,6.66-2.08,3.16-1.7,2.84,1.13-.96,3-3.68,3.27-4.07.81-1.17l-1.75,1.81c-3.66,3.28-1.84,1.93,5.47-4.06-1.8.74-3.51,2.06-5.28,2.92l11.94-5.04c-3.16,1.32-6.28,2.25-9.64,2.88l13.29-1.79c-3.33.45-6.53.54-9.88.25l13.29,1.79c-2.58-.38-4.97-.96-7.43-1.82l11.94,5.04c-5.14-2.23-8.81-7.36,2.21,2.85-5.5-5.1,7.16,12,2.5,2.48l5.04,11.94c-1.7-4.07-2.62-8.17-3.21-12.53l1.79,13.29c-1.64-15.31-.69-30.33-3.58-45.62-4.84-25.65-23.83-42.8-47.36-51.56-11.06-4.12-28.78-1.25-38.53,5.04-11.64,7.5-17.83,17.13-22.98,29.88-9.62,23.81-19.17,47.66-28.87,71.44l5.04-11.94c-1.12,2.63-3.72,5.99-4.31,8.68,5.69-6.71,6.76-8.26,3.21-4.65,7.77-5.44,9.55-7.02,5.34-4.71l11.94-5.04c-1.72.68-3.24,1.11-5.06,1.43l13.29-1.79c-1.8.14-3.39.11-5.19-.08l13.29,1.79c-1.81-.35-3.43-.8-5.17-1.42l11.94,5.04c-1.75-.77-3.33-1.71-5.01-2.59-7.12-3.76,10.53,9,3.25,2.09-6.8-6.45,4.43,7.82,2.7,3.6-.9-2.2-2.44-4.28-3.43-6.48l5.04,11.94c-1.28-3.28-2.17-6.5-2.7-9.98l1.79,13.29c-.23-2.66-.22-5.2.06-7.86l-1.79,13.29c.58-3.88,1.59-7.49,3.04-11.13l-5.04,11.94c7-16.09,16.76-30.03,22.5-46.91,8.34-24.53,8.02-51.64,2.07-76.62s-31.21-38.99-54.86-35.81c-23.56,3.17-44.41,24.13-43.35,49.11.42,10.03-.04,19.96-1.36,29.91l1.79-13.29c-1.97,13.07-5.42,25.66-10.4,37.9l5.04-11.94c-5.04,11.82-11.37,22.73-18.78,33.21-5.52,7.81,7.75-9.4,1.9-2.48-1.5,1.77-2.99,3.56-4.53,5.3-2.72,3.05-5.55,5.99-8.47,8.85,27.86,7.35,55.71,14.71,83.57,22.06-7.15-28.92-23.92-57.15-46.99-76.11-14.77-12.14-28.77-20.13-46.37-27.19-3.28-1.31-6.58-2.55-9.97-3.55-19.6-5.79-37.77-.95-52.67,12.78-29.5,27.18-36.7,70.66-21.44,106.82,14.89,35.29,53.75,60.86,92.69,56.74-11.79-28.45-23.57-56.9-35.36-85.36,17.49-14.1,6.67-4.93.41-2.28l11.94-5.04c-2.78,1.01-5.5,1.72-8.42,2.2l13.29-1.79c-2.56.23-4.86.25-7.43.07l13.29,1.79c-2.58-.41-4.92-.96-7.39-1.81l11.94,5.04c-1.57-.66-3.25-1.95-4.83-2.36-2.11-1.31-1.31-.62,2.41,2.08,3.84,3.15,4.42,3.55,1.74,1.19-4.45-4.78,3.52,4.7,3.62,5.19-.28-1.37-2.59-4.38-3.24-5.71l5.04,11.94c-1.47-3.56-2.4-7.04-2.94-10.84l1.79,13.29-.18-2.32c-1.37-17.97-8.66-33.75-24.76-43.17s-34.47-8.44-50.47,0-32.47,17.13-48.71,25.7c-23.17,12.22-32.13,46.39-17.94,68.41,15.2,23.57,43.63,31.01,68.41,17.94h0Z"/>
  <g>
    <polygon class="cls-3" points="320.17 313.61 321.65 323.19 328.06 330.45 318.49 331.93 311.22 338.33 309.75 328.76 303.34 321.5 312.91 320.02 320.17 313.61"/>
    <polygon class="cls-3" points="452.75 381.11 456.57 386.44 462.61 388.85 457.38 392.71 455.05 398.84 451.22 393.51 445.18 391.11 450.41 387.24 452.75 381.11"/>
    <polygon class="cls-3" points="368.51 381.48 372.21 388.94 379.42 393.26 371.84 396.89 367.45 403.96 363.74 396.5 356.53 392.18 364.12 388.56 368.51 381.48"/>
    <polygon class="cls-3" points="219.98 382.11 229.06 390.82 241.5 393.28 232.62 402.33 230.04 414.65 220.96 405.93 208.52 403.48 217.4 394.43 219.98 382.11"/>
    <polygon class="cls-3" points="148.21 440.07 150.3 444.57 154.4 447.18 150.06 449.37 147.53 453.64 145.44 449.13 141.34 446.52 145.68 444.34 148.21 440.07"/>
    <polygon class="cls-3" points="504.32 411.7 512.42 419.74 523.57 422.14 515.54 430.24 513.14 441.4 505.04 433.36 493.88 430.96 501.92 422.86 504.32 411.7"/>
    <polygon class="cls-3" points="307.77 452.46 301.93 449.15 295.22 449.52 298.53 443.67 298.16 436.97 304 440.28 310.71 439.91 307.4 445.75 307.77 452.46"/>
    <polygon class="cls-3" points="601.67 469.69 596.89 466.63 591.23 466.63 594.29 461.86 594.29 456.19 599.06 459.25 604.73 459.25 601.67 464.03 601.67 469.69"/>
    <polygon class="cls-3" points="656.07 402.28 654.71 396.78 650.6 392.88 656.1 391.52 660 387.41 661.36 392.91 665.47 396.81 659.97 398.17 656.07 402.28"/>
    <polygon class="cls-3" points="1227.52 230.76 1219.45 217.92 1205.72 211.48 1218.55 203.4 1225 189.67 1233.08 202.5 1246.8 208.95 1233.97 217.03 1227.52 230.76"/>
    <polygon class="cls-3" points="1271.37 267.68 1266.6 264.62 1260.94 264.62 1263.99 259.85 1264 254.18 1268.77 257.24 1274.44 257.25 1271.38 262.02 1271.37 267.68"/>
    <polygon class="cls-3" points="1259.92 333.69 1249.65 334.46 1241.43 340.65 1240.66 330.38 1234.47 322.16 1244.73 321.39 1252.96 315.2 1253.73 325.46 1259.92 333.69"/>
    <polygon class="cls-3" points="1318.19 341.1 1310.48 338.85 1302.78 341.1 1305.04 333.43 1302.78 325.76 1310.48 328.01 1318.19 325.76 1315.93 333.43 1318.19 341.1"/>
    <polygon class="cls-3" points="1342.37 418.69 1335.43 407.98 1323.81 402.68 1334.5 395.78 1339.76 384.2 1346.7 394.91 1358.32 400.21 1347.63 407.1 1342.37 418.69"/>
    <polygon class="cls-3" points="1388.69 386.37 1385.82 383.56 1381.89 382.74 1384.69 379.88 1385.51 375.96 1388.38 378.77 1392.31 379.6 1389.5 382.45 1388.69 386.37"/>
    <polygon class="cls-3" points="1450.2 448.68 1443.36 449.47 1438.11 453.92 1437.17 446.91 1432.69 441.42 1439.53 440.63 1444.78 436.18 1445.72 443.2 1450.2 448.68"/>
    <polygon class="cls-3" points="1608.24 407.44 1600.06 398.79 1588.52 395.89 1597.16 387.77 1600.02 376.26 1608.2 384.91 1619.74 387.81 1611.1 395.94 1608.24 407.44"/>
    <polygon class="cls-3" points="1737.8 401.23 1728.3 393.54 1716.16 392.16 1723.85 382.71 1725.19 370.61 1734.69 378.3 1746.83 379.68 1739.15 389.13 1737.8 401.23"/>
    <polygon class="cls-3" points="1675.79 436.4 1667.47 431.78 1657.98 432.35 1662.6 424.08 1662.01 414.61 1670.33 419.24 1679.82 418.67 1675.2 426.94 1675.79 436.4"/>
    <polygon class="cls-3" points="1568.69 466.32 1562.93 460.73 1555.07 459.11 1560.65 453.39 1562.25 445.55 1568.01 451.14 1575.86 452.76 1570.28 458.48 1568.69 466.32"/>
  </g>
  <g>
    <polygon class="cls-1" points="531.78 0 531.79 88.72 567.88 7.67 531.79 88.72 597.73 29.36 531.8 88.73 616.18 61.32 531.8 88.73 620.03 98.01 531.8 88.74 608.63 133.1 531.79 88.75 583.94 160.53 531.79 88.75 550.23 175.53 531.78 88.75 513.33 175.53 531.78 88.75 479.63 160.53 531.77 88.75 454.94 133.1 531.77 88.74 443.53 98.01 531.77 88.73 447.39 61.32 531.77 88.73 465.84 29.36 531.77 88.72 495.69 7.67 531.78 88.72 531.78 0"/>
    <circle class="cls-5" cx="531.78" cy="87.77" r="59.5"/>
  </g>
  <g>
    <path class="cls-3" d="m50.03,198.33c12.82,0,26.29-5.58,35.36-14.64s15.2-22.9,14.64-35.36-4.83-26.34-14.64-35.36c-9.78-8.98-21.81-14.64-35.36-14.64-12.82,0-26.29,5.58-35.36,14.64S-.52,135.87.03,148.33s4.83,26.34,14.64,35.36c9.78,8.98,21.81,14.64,35.36,14.64h0Z"/>
    <path class="cls-3" d="m94.78,138.85c12.82,0,26.29-5.58,35.36-14.64s15.2-22.9,14.64-35.36-4.83-26.34-14.64-35.36c-9.78-8.98-21.81-14.64-35.36-14.64-12.82,0-26.29,5.58-35.36,14.64s-15.2,22.9-14.64,35.36,4.83,26.34,14.64,35.36c9.78,8.98,21.81,14.64,35.36,14.64h0Z"/>
    <path class="cls-3" d="m121.29,196.76c12.82,0,26.29-5.58,35.36-14.64,8.67-8.67,15.2-22.9,14.64-35.36s-4.83-26.34-14.64-35.36c-9.78-8.98-21.81-14.64-35.36-14.64-12.82,0-26.29,5.58-35.36,14.64s-15.2,22.9-14.64,35.36,4.83,26.34,14.64,35.36c9.78,8.98,21.81,14.64,35.36,14.64h0Z"/>
    <path class="cls-3" d="m174.32,149.8c12.82,0,26.29-5.58,35.36-14.64s15.2-22.9,14.64-35.36-4.83-26.34-14.64-35.36c-9.78-8.98-21.81-14.64-35.36-14.64-12.82,0-26.29,5.58-35.36,14.64s-15.2,22.9-14.64,35.36,4.83,26.34,14.64,35.36c9.78,8.98,21.81,14.64,35.36,14.64h0Z"/>
    <path class="cls-3" d="m202.49,184.24c12.82,0,26.29-5.58,35.36-14.64s15.2-22.9,14.64-35.36-4.83-26.34-14.64-35.36c-9.78-8.98-21.81-14.64-35.36-14.64-12.82,0-26.29,5.58-35.36,14.64s-15.2,22.9-14.64,35.36,4.83,26.34,14.64,35.36c9.78,8.98,21.81,14.64,35.36,14.64h0Z"/>
    <path class="cls-3" d="m1029.4,113.8c12.82,0,26.29-5.58,35.36-14.64s15.2-22.9,14.64-35.36-4.83-26.34-14.64-35.36-21.81-14.64-35.36-14.64c-12.82,0-26.29,5.58-35.36,14.64s-15.2,22.9-14.64,35.36,4.83,26.34,14.64,35.36c9.78,8.98,21.81,14.64,35.36,14.64h0Z"/>
    <path class="cls-3" d="m1138.78,104.41c12.82,0,26.29-5.58,35.36-14.64s15.2-22.9,14.64-35.36-4.83-26.34-14.64-35.36c-9.78-8.98-21.81-14.64-35.36-14.64-12.82,0-26.29,5.58-35.36,14.64s-15.2,22.9-14.64,35.36,4.83,26.34,14.64,35.36,21.81,14.64,35.36,14.64h0Z"/>
    <path class="cls-3" d="m1070.83,101.33c12.82,0,26.29-5.58,35.36-14.64s15.2-22.9,14.64-35.36-4.83-26.34-14.64-35.36-21.81-14.64-35.36-14.64c-12.82,0-26.29,5.58-35.36,14.64s-15.2,22.9-14.64,35.36,4.83,26.34,14.64,35.36,21.81,14.64,35.36,14.64h0Z"/>
    <path class="cls-3" d="m1084.09,151.37c12.82,0,26.29-5.58,35.36-14.64s15.2-22.9,14.64-35.36-4.83-26.34-14.64-35.36-21.81-14.64-35.36-14.64c-12.82,0-26.29,5.58-35.36,14.64s-15.2,22.9-14.64,35.36,4.83,26.34,14.64,35.36,21.81,14.64,35.36,14.64h0Z"/>
    <path class="cls-3" d="m1168.6,151.37c12.82,0,26.29-5.58,35.36-14.64s15.2-22.9,14.64-35.36-4.83-26.34-14.64-35.36-21.81-14.64-35.36-14.64c-12.82,0-26.29,5.58-35.36,14.64s-15.2,22.9-14.64,35.36,4.83,26.34,14.64,35.36,21.81,14.64,35.36,14.64h0Z"/>
    <path class="cls-3" d="m694.66,215.54c12.82,0,26.29-5.58,35.36-14.64s15.2-22.9,14.64-35.36-4.83-26.34-14.64-35.36c-9.78-8.98-21.81-14.64-35.36-14.64-12.82,0-26.29,5.58-35.36,14.64-8.67,8.67-15.2,22.9-14.64,35.36s4.83,26.34,14.64,35.36c9.78,8.98,21.81,14.64,35.36,14.64h0Z"/>
    <path class="cls-3" d="m1461.92,157.63c12.82,0,26.29-5.58,35.36-14.64s15.2-22.9,14.64-35.36-4.83-26.34-14.64-35.36-21.81-14.64-35.36-14.64c-12.82,0-26.29,5.58-35.36,14.64s-15.2,22.9-14.64,35.36,4.83,26.34,14.64,35.36c9.78,8.98,21.81,14.64,35.36,14.64h0Z"/>
    <path class="cls-3" d="m1519.92,201.46c12.82,0,26.29-5.58,35.36-14.64s15.2-22.9,14.64-35.36-4.83-26.34-14.64-35.36-21.81-14.64-35.36-14.64c-12.82,0-26.29,5.58-35.36,14.64s-15.2,22.9-14.64,35.36,4.83,26.34,14.64,35.36,21.81,14.64,35.36,14.64h0Z"/>
    <path class="cls-3" d="m1536.49,138.85c12.82,0,26.29-5.58,35.36-14.64s15.2-22.9,14.64-35.36-4.83-26.34-14.64-35.36-21.81-14.64-35.36-14.64c-12.82,0-26.29,5.58-35.36,14.64s-15.2,22.9-14.64,35.36,4.83,26.34,14.64,35.36c9.78,8.98,21.81,14.64,35.36,14.64h0Z"/>
    <path class="cls-3" d="m1601.12,177.98c12.82,0,26.29-5.58,35.36-14.64s15.2-22.9,14.64-35.36-4.83-26.34-14.64-35.36c-9.78-8.98-21.81-14.64-35.36-14.64-12.82,0-26.29,5.58-35.36,14.64s-15.2,22.9-14.64,35.36,4.83,26.34,14.64,35.36,21.81,14.64,35.36,14.64h0Z"/>
    <path class="cls-3" d="m1788.38,101.28c12.82,0,26.29-5.58,35.36-14.64s15.2-22.9,14.64-35.36-4.83-26.34-14.64-35.36-21.81-14.64-35.36-14.64c-12.82,0-26.29,5.58-35.36,14.64s-15.2,22.9-14.64,35.36,4.83,26.34,14.64,35.36,21.81,14.64,35.36,14.64h0Z"/>
    <path class="cls-3" d="m1848.03,126.33c12.82,0,26.29-5.58,35.36-14.64s15.2-22.9,14.64-35.36-4.83-26.34-14.64-35.36-21.81-14.64-35.36-14.64c-12.82,0-26.29,5.58-35.36,14.64s-15.2,22.9-14.64,35.36,4.83,26.34,14.64,35.36,21.81,14.64,35.36,14.64h0Z"/>
    <path class="cls-3" d="m1798.32,157.63c12.82,0,26.29-5.58,35.36-14.64s15.2-22.9,14.64-35.36-4.83-26.34-14.64-35.36-21.81-14.64-35.36-14.64c-12.82,0-26.29,5.58-35.36,14.64s-15.2,22.9-14.64,35.36,4.83,26.34,14.64,35.36,21.81,14.64,35.36,14.64h0Z"/>
    <path class="cls-3" d="m1755.23,124.76c12.82,0,26.29-5.58,35.36-14.64s15.2-22.9,14.64-35.36-4.83-26.34-14.64-35.36-21.81-14.64-35.36-14.64c-12.82,0-26.29,5.58-35.36,14.64s-15.2,22.9-14.64,35.36,4.83,26.34,14.64,35.36,21.81,14.64,35.36,14.64h0Z"/>
    <path class="cls-3" d="m1463.58,196.76c12.82,0,26.29-5.58,35.36-14.64s15.2-22.9,14.64-35.36-4.83-26.34-14.64-35.36-21.81-14.64-35.36-14.64c-12.82,0-26.29,5.58-35.36,14.64s-15.2,22.9-14.64,35.36,4.83,26.34,14.64,35.36,21.81,14.64,35.36,14.64h0Z"/>
    <path class="cls-3" d="m523.98,220.24c12.82,0,26.29-5.58,35.36-14.64s15.2-22.9,14.64-35.36-4.83-26.34-14.64-35.36-21.81-14.64-35.36-14.64c-12.82,0-26.29,5.58-35.36,14.64s-15.2,22.9-14.64,35.36,4.83,26.34,14.64,35.36c9.78,8.98,21.81,14.64,35.36,14.64h0Z"/>
    <path class="cls-3" d="m575.35,174.85c12.82,0,26.29-5.58,35.36-14.64s15.2-22.9,14.64-35.36-4.83-26.34-14.64-35.36-21.81-14.64-35.36-14.64c-12.82,0-26.29,5.58-35.36,14.64s-15.2,22.9-14.64,35.36,4.83,26.34,14.64,35.36,21.81,14.64,35.36,14.64h0Z"/>
    <path class="cls-3" d="m610.15,218.67c12.82,0,26.29-5.58,35.36-14.64,8.67-8.67,15.2-22.9,14.64-35.36s-4.83-26.34-14.64-35.36c-9.78-8.98-21.81-14.64-35.36-14.64-12.82,0-26.29,5.58-35.36,14.64-8.67,8.67-15.2,22.9-14.64,35.36s4.83,26.34,14.64,35.36c9.78,8.98,21.81,14.64,35.36,14.64h0Z"/>
    <path class="cls-3" d="m641.63,176.41c12.82,0,26.29-5.58,35.36-14.64,8.67-8.67,15.2-22.9,14.64-35.36s-4.83-26.34-14.64-35.36c-9.78-8.98-21.81-14.64-35.36-14.64-12.82,0-26.29,5.58-35.36,14.64-8.67,8.67-15.2,22.9-14.64,35.36s4.83,26.34,14.64,35.36c9.78,8.98,21.81,14.64,35.36,14.64h0Z"/>
  </g>
  <g>
    <rect class="cls-25" x="879.03" y="265.24" width="313" height="217"/>
    <rect class="cls-28" x="677.03" y="260.24" width="203" height="222"/>
    <polygon class="cls-27" points="778.53 65.56 1098.03 65.24 1213.34 265.24 894.42 265.24 778.53 65.56"/>
    <polygon class="cls-8" points="677.03 265.24 665.12 265.24 778.53 65.56 894.42 265.24 677.03 265.24"/>
    <polygon class="cls-28" points="778.53 88.24 677.03 265.74 880.03 265.74 778.53 88.24"/>
    <rect class="cls-12" x="669.03" y="438.24" width="531" height="12"/>
    <rect class="cls-13" x="677.03" y="450.24" width="515" height="32"/>
    <g>
      <rect class="cls-2" x="732.03" y="297.9" width="94" height="96"/>
      <line class="cls-2" x1="778.53" y1="395.51" x2="778.53" y2="297.9"/>
    </g>
    <g>
      <path class="cls-2" d="m779.36,181.24h0c17.49,0,31.67,14.18,31.67,31.67v31.93h-63.87v-31.41c0-17.78,14.41-32.2,32.2-32.2Z"/>
      <line class="cls-2" x1="778.76" y1="245.91" x2="778.76" y2="181.24"/>
    </g>
    <rect class="cls-2" x="906.34" y="297.57" width="94" height="96"/>
    <rect class="cls-2" x="1076.03" y="297.57" width="94" height="96"/>
  </g>
  <path class="cls-6" d="m82.66,482.24h1733.25c17.99,0,32.6,14.61,32.6,32.6v16.4H50.02v-16.35c0-18.02,14.63-32.65,32.65-32.65Z"/>
  <g>
    <g>
      <g>
        <path class="cls-23" d="m1389.23,267.76s9.14,4.32,11.22,3.78c2.08-.55,9.97-1.94,11.07-1.45,0,0,1.26,2,.31,3.32-.95,1.32-8.62,4.88-11.4,5.01s-13.3-1.78-15.53-3.52l4.33-7.14Z"/>
        <path class="cls-23" d="m1411.24,270.13s3.52-1.46,4.68.17c1.15,1.63,1.81,3.29,1.66,4.13-.14.84-2.52,1.21-3.47.56-.95-.65-3.31-1.56-3.31-1.56l.44-3.29Z"/>
      </g>
      <path class="cls-30" d="m1428.09,475.27s-1.95,3.15-1.99,6.8c0,.81.65,1.47,1.47,1.47h12.13c1.17,0,2.04-1.1,1.75-2.24-.56-2.22-1.77-5.58-4.2-7.61-3.86-3.25-9.16,1.58-9.16,1.58Z"/>
      <path class="cls-30" d="m1408.89,472.05s-.7,11.25-2.87,11.41c-.29.02-11.03.02-11.03.02h-13.86s.23-3.38,4.24-4.08c4.01-.7,10.72-3.52,13.15-8.82,2.56-5.57,10.38,1.47,10.38,1.47Z"/>
      <g>
        <path class="cls-31" d="m1414.7,402.58c-.48,6.25-.55,11.18.09,13.52,2.86,10.46-5.16,57.68-5.16,57.68-5.91,2.83-14.3-.03-14.3-.03.51-6.54-2.6-65.1-5.49-100.83-1.21-15-2.12-25.49-2.12-25.49l35.4-4.12s-6.74,37.58-8.42,59.27Z"/>
        <path class="cls-29" d="m1423.12,343.31s-6.74,37.58-8.42,59.27l-24.86-29.66c-1.21-15-2.12-25.49-2.12-25.49l35.4-4.12Z"/>
      </g>
      <path class="cls-31" d="m1405.76,351.32s17.92,104.34,21,124.55c0,0,6.71,1.87,13.56-1.03,0,0,.89-48.49-1.46-63.09-2.35-14.61,1.25-59.76-2.53-63.96-3.78-4.2-30.58,3.53-30.58,3.53Z"/>
      <path class="cls-26" d="m1407.6,262.34s-1.37,9.27-.77,12.04c.6,2.77,9.81,4.27,13.67,1.99s2.69-3.14,2.69-3.14c0,0-.59-10.62-1.13-11.37-.54-.76-14.46.48-14.46.48Z"/>
      <path class="cls-7" d="m1437.25,318.93c1.22-11.65.91-20.42-.24-27.01-3.37-19.36-13.91-20-13.91-19.88,0,2.6-5.6,5.01-10.12,4.71-3.81-.25-6.28-3.14-6.28-4.71,0-.01-.07-.01-.2,0-.98,0-5.5.09-9.78.83-3.1.53-6.06,1.41-7.46,2.87-.72.75-3.28,2.84-6.58,5.69-8.39,7.25-21.5,19.39-20.92,26.63,0,0,16.21,11.9,26.48,4.44-.56,19.37-4.08,39.89-3.21,39.88,0,0,5.73,4.96,23.12,4.96,9.51,0,16.39-.81,21.16-1.76,6.5-1.28,9.09-2.8,9.09-2.8,1.45-.02-1.58-29.83-1.16-33.85Z"/>
      <path class="cls-24" d="m1438.41,352.78s-2.59,1.52-9.09,2.8c-8.99-3.98-26.83-14.27-27.53-31.55-.92-22.98,27.14-36.67,27.14-36.67,0,0,3.76,2.09,8.08,4.56,1.15,6.6,1.46,15.36.24,27.01-.42,4.02,2.61,33.83,1.16,33.85Z"/>
      <path class="cls-23" d="m1407.46,263.39s3.57,5.04,7.35,5.08c3.78.05,7.64-5,7.64-5l-14.99-.08Z"/>
      <path class="cls-26" d="m1407.11,263.14c.99.78,3.2,1.85,5.01,2.56,1.37.54,2.89.57,4.28.09,2.08-.72,5.24-1.84,6.04-2.33,1.89-1.15,1.77-3.47,1.87-6.7.12-3.82.5-6.82.07-9.02-.51-2.63-2.18-4.13-6.85-4.54-8.59-.75-12.16,1.4-12.31,4.28-.04.77-.07,1.51-.1,2.21-.34,8.98.37,12.16,1.99,13.44Z"/>
      <path class="cls-20" d="m1405.17,248.55s1.41-2.07,4.05-1.26c2.64.81,2.91,3.07,7.43,2.71,4.52-.36,5.6-2.5,6.41-1.43.81,1.07,1.28,7.38,1.28,7.38,0,0,9.08-20.7-9.32-20.7,0,0-18.97-1.15-9.85,19.9v-6.6Z"/>
      <path class="cls-26" d="m1371.73,268.16h.02s-.02,0-.02,0Z"/>
      <path class="cls-23" d="m1414.09,331.83s-2.41,1.9-5.93,1.9c0,0-3.59-3.96-6.62-7.79-1.96-2.48-3.68-4.91-4.04-6.17-.9-3.2-17.81-4.11-19.88-6.37-2.07-2.26,8.4-7.92,8.4-7.92,0,0,17.16,2.62,19.74,6,1.03,1.34,2.55,4.84,4.02,8.56,2.22,5.63,4.3,11.79,4.3,11.79Z"/>
      <path class="cls-24" d="m1390.07,284.79s3.25-6.31,4.86-6.13c1.61.18-3.69,13.07-4.17,19.33-.48,6.26-.68-13.2-.68-13.2Z"/>
      <path class="cls-26" d="m1400.24,328.26c-2.26,5.46-5.18,10.44-5.55,11.07-.03.04-.04.07-.04.07h-.05c-.55,0-5.26-.11-5.72-2,0,0-.15-6.55.11-11.75.12-2.33.32-4.38.65-5.46,0,0-25.55-.17-25.1-7.4.45-7.23,13.81-11.05,21.49-7.3,0,0,10.18,3.7,15.54,8.59,2.63,2.4,1.01,8.55-1.32,14.19Z"/>
      <path class="cls-31" d="m1365.29,302.65s-3.4,5-2.6,9.67c.8,4.67,10.5,7.16,17.3,7.46,0,0,19.43-4.45,16.41-12.2-.68-1.76-31.11-4.92-31.11-4.92Z"/>
      <g>
        <path class="cls-11" d="m1372.35,241.2s-3.09-6.32-10.54-2.45c-7.45,3.86-.2,18.41-4.11,22.05-3.91,3.64,1.42,6.02.62,8.63s1.47,5.57,6.69,5.22c5.22-.35,10.71-.07,13.06-4.63,2.36-4.56,1.82-14.6.91-16.01-.91-1.41-6.64-12.8-6.64-12.8Z"/>
        <path class="cls-26" d="m1384.43,275.82l-12.67-7.65c.07-.03.33-.41,1.27-3.15.4-1.17.62-2.18.72-2.99.01-.08.02-.16.03-.24.13-1.17.04-1.84.04-1.84l2.78,1,5.13,1.86c-.06,1.3.12,2.22.4,2.85.67,1.53,1.92,1.54,1.95,1.54l.35,8.62Z"/>
        <path class="cls-21" d="m1382.12,265.67c-4.96.42-7.76-2.81-8.37-3.63-.09-.12-.14-.19-.14-.19,0,0,.06-.02.17-.05.4-.12,1.5-.45,2.81-.84l5.13,1.86c-.06,1.3.12,2.22.4,2.85Z"/>
        <path class="cls-26" d="m1382.37,263.88s-11.02,1.21-11.25-6.24c-.23-7.45-1.86-10.87,5.77-11.53,7.63-.66,9.43,2.08,9.88,4.61,1.4,7.88-1.3,12.83-4.4,13.17Z"/>
        <path class="cls-11" d="m1377.49,249.75c-3.9-.99-2.41,5.92-3.4,5.45-1.1-.53-3-.52-2.7.81.3,1.33.73,1.81.96,2.64.23.83,0,2.48-.91,2.15-.91-.33-9.34-9.97-3.39-17.47,5.96-7.5,23.72-2.88,18.13,4.97-.98,1.38-5.91,2.16-8.69,1.45Z"/>
        <path class="cls-18" d="m1391.65,305.48s-3.31,1.76-8.53,1.67c-3.32-.05-10.38-1.49-14.91-3.13-2.59-.93-4.35-1.93-4.14-2.76.31-1.2,2.52-10.44,4.57-18.99,1.87-7.82,3.6-15.06,3.6-15.06,0,0,5.16,3.67,8.17,2.37,3.01-1.3,2.62-2.76,2.62-2.76,0,0,3.55-.43,4.51-.32,1.54.18,6.96,2.16,6.96,2.16,0,0,.71,2-1.18,5.13-1.57,2.59-3.09,3.09-3.09,3.09,0,0,4.43,13.97,1.42,28.6Z"/>
        <path class="cls-26" d="m1375.06,293s3.18-.59,4.43.22c1.25.81,1.61,2.09.72,2.61-2.81,1.63-5.66-.17-5.66-.17l.51-2.66Z"/>
        <path class="cls-4" d="m1368.2,304.02c-2.59-.93-4.35-1.93-4.14-2.76.31-1.2,2.52-10.44,4.57-18.99.6-1.11.99-1.77.99-1.77,0,0,3.88,17.75-1.41,23.53Z"/>
        <path class="cls-26" d="m1372.36,268.2s-9.81,2.08-13.67,17.32c-.38,1.49.01,3.08,1.04,4.23,1.78,1.97,5.7,4.85,14.82,5.91,1,.12,1.13-2.41,1.13-2.41-.1.2-6.19-3.94-8.79-6.16-.47-.4-.45-1.25-.11-1.76.88-1.34,2.35-3.65,2.84-4.84.72-1.73,5.48-11.51,2.74-12.29Z"/>
        <path class="cls-18" d="m1372.23,267.2s-5.77.41-10.47,6.68c0,0,1.59,5.77,9.06,7.31,0,0,4.6-10.38,1.41-13.98Z"/>
      </g>
      <path class="cls-16" d="m1400.24,328.26c-2.26,5.46-5.18,10.44-5.55,11.07-.03.02-.06.04-.09.07-.55,0-5.26-.11-5.72-2,0,0-.15-6.55.11-11.75.75.72,3.64,2.86,11.26,2.61Z"/>
      <path class="cls-16" d="m1414.09,331.83s-2.41,1.9-5.93,1.9c0,0-3.59-3.96-6.62-7.79,3.41-1.47,7.01-4.72,8.25-5.9,2.22,5.63,4.3,11.79,4.3,11.79Z"/>
      <path class="cls-11" d="m1401.92,346.46c-.11.6-.69.98-1.29.86-1.41-.29-3.96-.83-5.02-1.22-1.5-.55-4.38-2.25-5.88-2.79-.52-.19-1.76-.69-2.56-1.02-.43-.17-.65-.64-.52-1.08.27-.92.78-2.47,1.52-3.78.14-.24.35-.42.63-.56.78.62,2.01,1.31,3.65,1.32,1.35,0,2.46-.32,3.29-.69.1.21,2.15,4.34,3.6,4.87,1.31.47,3.01,1.72,2.59,4.09Z"/>
      <path class="cls-11" d="m1423.36,331.88c.29.53.06,1.2-.48,1.47-1.29.65-3.63,1.8-4.7,2.15-1.52.5-4.83.95-6.35,1.45-.52.17-1.81.55-2.64.79-.44.13-.91-.1-1.08-.52-.36-.88-.92-2.43-1.15-3.91-.04-.27.01-.55.15-.82,1,0,2.39-.21,3.68-1.22,1.06-.83,1.73-1.78,2.16-2.58.21.1,4.38,2.07,5.84,1.59,1.32-.44,3.43-.52,4.57,1.61Z"/>
      <path class="cls-7" d="m1402.69,323.62s-.74,4.26-3.51,6.22c0,0-11.25-1.55-21.73-4.2-7.7-1.95-14.98-4.49-17.07-7.45-4.92-6.98,2.57-15.48,2.57-15.48,0,0,14.45,6.97,30.09,15.51,3.2,1.75,6.45,3.56,9.64,5.4Z"/>
      <path class="cls-26" d="m1385.76,329.84s-3.34.27-4.61,1.54c-1.26,1.26-3.18,4.94-1.82,6.4,1.36,1.46,7.87-1.74,8.05-2.26.18-.53-1.63-5.67-1.63-5.67Z"/>
      <path class="cls-24" d="m1402.69,323.62s-.74,4.26-3.51,6.22c0,0-11.25-1.55-21.73-4.2,4.92-4.28,11.36-6.41,15.59-7.42,3.2,1.75,6.45,3.56,9.64,5.4Z"/>
      <path class="cls-7" d="m1440.86,277.66c-2.25-5.34-17.04-5.55-17.04-5.55-7.53,19.75-9.34,32.7-11.33,41.03-.32-.03-.62-.03-.9,0,0,0-10.57,4.13-26.29,15.54,0,0-1.64,4.51,1.31,8.2,0,0,27.08-5.98,34.64-10.41,0,0,.01,0,.01,0,.08-.05.15-.1.23-.15.11-.07.22-.14.33-.21,24.6-15.98,22.26-40.81,19.04-48.45Z"/>
    </g>
    <g>
      <path class="cls-26" d="m1377.92,372.43s7.59,2.62,6.52,11.37c0,0-.7,3.55-2.89,1.98-2.19-1.57-1.16-1.28-4.28-3.44-3.12-2.15-5.16-5.55-4.8-8.24l5.45-1.67Z"/>
      <path class="cls-18" d="m1378.27,372.99l-4.5,5.46c-.21.26-.54.37-.86.31-4.22-.77-18.72-10.13-23.48-13.94-.52-.41-.91-.76-1.18-1.03-1.77-1.81-7.88-10.71-12.22-18.65-2.5-4.57-4.41-8.81-4.56-11.19-.54-8.49,3.93-20.37,3.93-20.37,13.22,4.6,14.61,15.15,14.61,15.15l7.33,27.27,20.75,15.51c.47.35.55,1.03.18,1.48Z"/>
      <path class="cls-4" d="m1349.43,364.81c-.52-.41-.91-.76-1.18-1.03-1.77-1.81-7.88-10.71-12.22-18.65-.56-4.79-.18-9.29,1.8-12.44,0,0,11.23,19.77,11.59,32.11Z"/>
      <path class="cls-26" d="m1341.82,443.37l-2.25,9.37-1.39,5.8-4.63,19.3s-3.96,1.22-8.08,0c0,0-1.53-6.39-1.57-14.35-.02-4.17.36-8.77,1.58-13.11.49-1.77,1.13-3.49,1.93-5.13,6.53-13.34,14.41-1.88,14.41-1.88Z"/>
      <path class="cls-31" d="m1345.66,483.48h-21.75s-.34-3.29.61-6.44c.14-.47.31-.93.52-1.38,0,0,4.86,1.1,9.04,0,0,0,3.94,3.35,6.32,4.38,2.38,1.03,5.01.47,5.26,3.44Z"/>
      <path class="cls-23" d="m1339.57,452.74l-1.39,5.8c-2.37,1.51-7.47,4.24-14.28,4.95-.02-4.17.36-8.77,1.58-13.11,2-1.01,4.04-1.55,5.77-1.24,4.32.75,6.88,2.33,8.32,3.61Z"/>
      <path class="cls-15" d="m1334.36,483.48h-10.45s-.34-3.29.61-6.44c2.62.82,7.97,2.87,9.84,6.44Z"/>
      <path class="cls-26" d="m1324.48,443.37l-2.25,9.37-1.39,5.8-4.63,19.3s-3.96,1.22-8.08,0c0,0-1.53-6.39-1.57-14.35-.02-4.17.36-8.77,1.58-13.11.49-1.77,1.13-3.49,1.93-5.13,6.53-13.34,14.41-1.88,14.41-1.88Z"/>
      <path class="cls-31" d="m1307.7,475.66s4.86,1.1,9.04,0c0,0,3.94,3.35,6.32,4.38,2.38,1.03,5.01.47,5.26,3.44h-21.75s-.45-4.34,1.13-7.82Z"/>
      <path class="cls-23" d="m1322.24,452.74l-1.39,5.8c-2.37,1.51-7.47,4.24-14.28,4.95-.02-4.17.36-8.77,1.58-13.11,2-1.01,4.04-1.55,5.77-1.24,4.32.75,6.88,2.33,8.32,3.61Z"/>
      <path class="cls-14" d="m1346.36,452.12c-.52,1.93-2.28,3.27-4.28,3.27h-34.88c-2.63,0-4.69-2.23-4.49-4.85.37-4.75,1.67-12.51,2.24-17.75.24-2.18.35-3.92.21-4.83-3.52-23.29-6.48-50.73-6.12-55.98.05-.74.09-1.12.09-1.12,0,0,2.54-.21,6.4-.36,11.23-.44,33.65-.37,37.38,6.98,3.79,7.48,6.09,57.16,6.09,57.16.55,4.64-1.4,12.9-2.64,17.47Z"/>
      <path class="cls-22" d="m1304.96,432.79c.24-2.18.35-3.92.21-4.83-3.52-23.29-6.48-50.73-6.12-55.98.05-.74.09-1.12.09-1.12,0,0,2.54-.21,6.4-.36,5.81,3.42,9.59,9.25,9.59,9.25,0,0-1.17,43.59-10.17,53.03Z"/>
      <path class="cls-22" d="m1326.61,274.92c-2.79-.7-4.4,1.5-4.4,4.08s2.1,4.68,4.68,4.68,4.68-2.99,4.68-5.58c0-2.58-2.45-2.56-4.96-3.18Z"/>
      <path class="cls-14" d="m1325.17,301.73s-14.51-13.07-1.37-22.33c0,0,3.92-1.04,5.91-.67,0,0,7.14-2.09,11.32,2.76s6,8.36,2.41,12.69c-3.58,4.33-18.27,7.55-18.27,7.55Z"/>
      <path class="cls-26" d="m1308.52,380.67s3.58,7.19-3.3,12.68c0,0-2.99,2.04-3.44-.61s.07-1.73-.65-5.45c-.72-3.72.2-7.57,2.34-9.25l5.06,2.63Z"/>
      <path class="cls-26" d="m1337.06,301.61s-.18,1.96-.51,4.6c-.16,1.29-.36,2.75-.59,4.22-.17,1.06-.35,2.12-.55,3.14l-4.49,15.18-10.55-17.08s2.48-2.05,5.84-13.17c.03-.12.05-.18.05-.18l10.8,3.28Z"/>
      <path class="cls-18" d="m1343.21,376.48c.14,1.71-.3,2.02-.3,2.02,0,0-6.49,2.35-22.8,1.54-1.77-.09-3.43-.18-4.98-.27-10.52-.62-16.14-1.27-16.14-1.27,0,0-8.61-19.88,7.57-44.37,1.83-2.77,3.98-5.6,6.49-8.46,2.62-2.99,3.2-6.99,4.19-10.79.28-1.09-.54-1.33-.13-2.36,0,0,2.95-.83,3.26-.83,1.68,1.48,3.89,4.35,9.37,4.91,3.71.39,5.16-1.7,5.69-2.96,1.41.51,2.88,1.39,4.08,1.97,9.94,4.77,10.86,14.03,10.86,14.03,0,0-9.14,30.04-9.7,33.8-.25,1.67,1.84,4.26,2.55,13.05Z"/>
      <path class="cls-23" d="m1336.55,306.21c-.16,1.29-.71,4.83-.94,6.3-11.17-4.36-9.71-12.85-9.41-14,.03-.12.05-.18.05-.18,0,0,5.91,4.2,10.29,7.88Z"/>
      <path class="cls-26" d="m1338.95,307.71s-12.91.41-13.04-7.63c-.13-8.04-1.89-13.4,6.34-14.01,8.23-.6,9.89,2.44,10.58,5.11.7,2.67-.54,16.21-3.89,16.52Z"/>
      <path class="cls-14" d="m1340.07,284.87s-.81,13.42-16.54,11.98c0,0,.33-18.59,16.54-11.98Z"/>
      <path class="cls-14" d="m1337.06,286.21s4.41,5.46,6.41,7.2c0,0,4.9-7.04-6.41-7.2Z"/>
      <path class="cls-14" d="m1337.06,286.21s3.96,6.69,5.96,8.43c0,0,5.35-8.27-5.96-8.43h0Z"/>
      <path class="cls-4" d="m1315.13,379.76c-10.52-.62-16.14-1.27-16.14-1.27,0,0-8.61-19.88,7.57-44.37,3.28,7.64,11,28.04,8.57,45.64Z"/>
      <path class="cls-18" d="m1320.36,311.68s-12.48,2.56-18.05,9c-4.26,4.94-8.92,29.06-8.92,33.05s4.38,24.07,7.11,27.95c.19.27.51.42.83.38l7.03-.75c.59-.06,1-.6.91-1.19l-3.95-25.61,13.87-24.59s8.18-9.69,1.16-18.26Z"/>
    </g>
    <g>
      <path class="cls-20" d="m1373.92,476.55s1.06,2.06,3.4,2.57c1.48.32,2.74,1.09,3.53,2.17.66.91.02,2.19-1.11,2.19h-11.89c-1.01,0-1.8-.87-1.7-1.88.09-.88.18-1.91.22-2.69.09-1.72,1.81-3.1,1.81-3.1l5.74.74Z"/>
      <path class="cls-17" d="m1376.62,446.55c.5,9.04-.74,29.6-.74,29.6,0,0-.83,2.29-6.07,2.84-2.81.29-5.33-.44-5.33-.44-1.06-4.87-2.03-9.52-2.93-13.93-6.47-31.72-8.99-51.31-8.99-51.31l25.52-5.93s-1.12,17.91-1.45,30.12c-.1,3.81-.13,7.07-.02,9.05Z"/>
      <path class="cls-20" d="m1378.08,407.38s-1.12,17.91-1.45,30.12l-15.09,27.13c-6.47-31.72-8.99-51.31-8.99-51.31l25.52-5.93Z"/>
      <path class="cls-17" d="m1352.43,366.37s-9.88-4.49-17.35-.56c-7.47,3.93-2.9,36.39,7.78,39.53h0s20.02,6.4,9.57-38.97Z"/>
      <path class="cls-23" d="m1380.99,414.95s-.06-.09-.1-.13c-.24-.36-.63-1.25-.93-1.94h0c1.99-9.72.65-15.35.65-15.35.24-2.83,1.93-22.61-1.97-31.77-1.88-4.42-5.02-4.43-5.02-4.43,0,0,.74,7.06.25,10.86-.45,3.49,2.88,36.15,3.42,41.49,0,0-.02,0-.02,0l.16,5.43,1.59-.38c.07-.02.13-.04.2-.07h0c.19-.09.36-.23.49-.42l1.29-2.04c.25-.39.22-.88-.02-1.25h0Zm-3.03-.88l.07-.04-.03.04s-.02,0-.03,0Z"/>
      <path class="cls-20" d="m1353.22,476.55s1.06,2.06,3.4,2.57c1.48.32,2.74,1.09,3.53,2.17.66.91.02,2.19-1.11,2.19h-11.89c-1.01,0-1.8-.87-1.7-1.88.09-.88.18-1.91.22-2.69.09-1.72,1.81-3.1,1.81-3.1l5.74.74Z"/>
      <path class="cls-17" d="m1361.49,325.07c-2.54,0-5.74,1.1-7.45,2.76-1.82,1.77-3.72,1.86-5.07,3.95-1.41,2.18-2.28,4.44-1.57,7.51.77,3.35.62,6.59,2.72,9.04,1.04,1.22,2.74,1.35,3.92,2.47,2.17,2.05,4.64,2.7,7.45,2.7,5.31,0,8.61-3.14,11.33-7.06,2.18-3.14,1.75-5.25,2.26-7.94,1.61-8.45-5.44-13.43-13.58-13.43Z"/>
      <path class="cls-26" d="m1368.96,359.14l-10.14,5.18-2.03-7.04s1.29-2.44,1.88-6.43c.24-1.68.37-3.63.21-5.79l8.27,4.23s-.2.76-.33,1.89c-.14,1.22-.2,2.86.14,4.42.3,1.34.9,2.62,2.01,3.52Z"/>
      <path class="cls-17" d="m1345.46,410.13s-1.93,25.56-1.5,66.31c0,0,2.33,1.22,5.13,1.5,5.24.52,6.52-1.56,6.52-1.56,0,0,5.36-19.88,6.7-28.84,1.24-8.26,9.34-38.07,9.34-38.07l-26.19.66Z"/>
      <path class="cls-7" d="m1375.67,359.85c-.9-.42-3.74-1.57-7.99-2.27.04,1.46-.34,2.83-2.9,3.17-3.4.44-6.45-1.88-7.99-3.46,0,0,0,0,0,0h0s-2.4.26-5.2.87c-1.4.31-2.9.7-4.25,1.2-1.64.6-3.05,1.35-3.8,2.28,0,0,0,0,0,0h0c-2.62,3.22-6.93,12.9-6.93,12.9,0,0,7.17,2.66,8.98,4.21l.04.35,1.12,9.32-3.34,18.57c-.03.16-.04.33-.04.48,0,1.24.85,2.36,2.1,2.66,0,0,.29.05.82.12,3.55.5,17.94,2.21,29.22-.85,2.54-.69,4.21-3.11,4-5.73l-1.84-23.09c.98-.17,2.11-.35,3.04-.45.77-.08,1.38-.11,1.64-.04,0,0-1.27-18.03-6.66-20.25Z"/>
      <path class="cls-24" d="m1354.37,394.11c-.14,6.48-4.39,14.09-8.1,16.15-.53-.07-.82-.12-.82-.12-1.25-.3-2.1-1.42-2.1-2.66,0-.16.02-.32.04-.48l3.34-18.57-1.12-9.32c.05-.16.08-.25.08-.25,0,0,8.91,3.82,8.66,15.27Z"/>
      <path class="cls-24" d="m1380.69,380.14c-.94.11-3.04.45-3.04.45l-1.06-9.67s3.55,6.82,4.1,9.22Z"/>
      <path class="cls-17" d="m1344.01,403.67l.87-4.82c14.71-21.28,15.82-25.1,9.21-34.66-1.89-2.74-5.34-4.45-6.75-4.83,1.35-.5,2.85-.9,4.25-1.2,1.4.66,2.68,1.3,3.68,2.16,20.19,17.48-11.26,43.35-11.26,43.35Z"/>
      <path class="cls-26" d="m1361.18,376.36c-5.76.4-6.56,6.3-6.56,6.3,0,0-9.67.88-11.09,1.51,0,0,.78-2.12,2.18-5.33-1.26-1.24-5.4-3.08-8.14-3.93-2.09,5.34-2.9,10.62-1.72,15.71.12.54.6.92,1.15.95,3.08.14,13.24.09,20.68-6.07l.13-.04c1.78-.11,3.45-1.88,4.1-4.2.64-2.33.69-1.62,1.19-3.25.49-1.64-1.91-1.65-1.91-1.65Z"/>
      <path class="cls-23" d="m1366.95,355.61c-4.7-.13-8.29-4.75-8.29-4.75l8.15.33c-.14,1.22-.2,2.86.14,4.42Z"/>
      <path class="cls-26" d="m1367.4,352.77s-10.38,1.27-10.61-6.05c-.22-7.32,4.11-12.05,7-12,5.76.11,6.71,2.44,7.38,4.86.67,2.42,1.01,12.68-3.77,13.19Z"/>
      <path class="cls-3" d="m1364.62,348.56s.23.91,2.5.74c0,0,1.91-.14,1.84-1.15,0,0-1.86-.69-4.34.4Z"/>
      <path class="cls-17" d="m1366.36,334.79s-8.87,0-6.84,6.09c1.29,3.84-2.99,4.44-2.99,4.44l-2.06-6.15,1.29-4.79,10.59.43Z"/>
    </g>
    <g>
      <path class="cls-26" d="m1486.94,330.93c-2.21-3.67-3.58-20.07-5.18-24.46-1.01-2.78-3.71-6.09-3.42-6.3-2.87-1.69-10.65-2.51-10.65-2.51,0,0,0,.01,0,.02-.3-.06-.61-.13-.9-.18-.93-.19-1.81-.73-1.92-1.68,0-.05,0-.1-.01-.14-.12-1.16-.14-2.35-.13-3.38,0-.01,0-.03,0-.04.03-1.68.15-2.93.15-2.93h-.03s-10.08-1.62-10.08-1.62c-.14,3.15-.32,5.49-.51,7.24-.15,1.34-1.23,2.38-2.58,2.46-.2.01-.4.02-.61.04h0s-6.5-.25-8.98.5c-.2.06-.41.15-.63.26.15.16-23.93,24.29-23.31,27.09.62,2.8,11.19,18.67,15.02,21.59h3.83s-8.5-19.38-8.61-20.95c-.16-2.3,21.37-15.17,21.37-17.52,0-.85,6-1.11,9.93-1.08,4.16.03,11.99-2.14,11.99-2.14,0,0,3.38,25.65,7.66,33.25,3.37,6,18.27,21.37,18.27,21.37l3.14-2.79s-8.46-17.2-13.82-26.09Z"/>
      <path class="cls-14" d="m1456.43,429.64c1.82,17.91-.38,41.37-.38,41.37h-6.17c-9.32-24.51-9.6-39.89-10.13-45.67-.29-3.15-4.54-15.72-8.35-27.82-3.19-10.1-6.07-19.87-6.09-23.53-.04-8.39,8.31-21.84,8.31-21.84,0,0,12.01,4.63,19.42,9.21,2.47,1.53,4.37,3.02,5.01,4.29,1.72,3.37,2.99,27.42-1.58,42.11-2.75,8.84-1.34,13.38-1.34,13.38.57,2.58,1,5.46,1.3,8.51Z"/>
      <path class="cls-22" d="m1456.47,407.75c-2.75,8.84-1.34,13.38-1.34,13.38.57,2.58,1,5.46,1.3,8.51l-25.04-32.12c-3.19-10.1-6.07-19.87-6.09-23.53-.04-8.39,8.31-21.84,8.31-21.84,0,0,12.01,4.63,19.42,9.21,2.47,1.53,4.37,3.02,5.01,4.29,1.72,3.37,2.99,27.42-1.58,42.11Z"/>
      <path class="cls-31" d="m1449.88,471.01s-.35,4.03-.87,4.85c-.52.83-2.69,3.62-5.18,4.56-2.49.93-9.59.45-10.15,3.03h25.06s.34-3.87-.62-6.42c-.97-2.55-2.07-6.02-2.07-6.02h-6.17Z"/>
      <path class="cls-31" d="m1491.76,470.11s2.8,3.83,3.49,5.35c.69,1.52,5.24,7.95,4.69,8-.55.05-12.7,0-12.7,0,0,0-1.24-3.03-1.1-5.1.14-2.07-1.66-6-1.31-8.25.35-2.24,6.93,0,6.93,0Z"/>
      <path class="cls-14" d="m1491.76,470.11h-6.93s-27.03-39.07-27.96-49c-1.16-12.42-9.84-61.46-9.84-61.46l27.72-8.63s2.42,6.23,4.45,12.51c.88,2.74,1.69,5.49,2.2,7.74,1.11,4.96-2.02,23.7-4.15,37.02-1.05,6.56-1.87,11.81-1.81,13.45.16,4.97,9.27,5.61,16.31,48.37Z"/>
      <path class="cls-31" d="m1454.63,290.43c-.02.25-.03.49-.05.73.02-.24.03-.48.05-.73Z"/>
      <path class="cls-31" d="m1454.69,289.39c-.01.27-.03.53-.04.78.02-.26.03-.52.04-.78Z"/>
      <path class="cls-31" d="m1454.78,287.71c0,.2-.02.39-.03.58,0-.19.02-.38.03-.58h0Z"/>
      <path class="cls-31" d="m1478.63,357.54c.9,2.72-12.14,4.3-26.62,4.11-4.09-.05-7.89-.55-11.03-1.36-6.63-1.71-10.27-4.83-7.36-8.14.83-.94,10-14.07,10-14.07.54-1.18-.05-5.03-2.85-14.18-1.15-3.74.35-6.07.88-7.56,0,0,0,0,0,0,.18-.52.25-.93.06-1.27-1.25-2.17-3.06-4.25-4.7-5.92-2.11-2.14-3.93-3.58-3.93-3.58,0,0,5.37-5.86,8.38-7.36,3.09,3.24,9.81,9.06,18.24,9.12,7.27.06,14.34-4.04,18.64-7.15.32.19.59.39.77.6,2.69,3.15,3.45,8.84,3.45,8.84,0,0-8.65,4.77-8.49,6.33.43,4.28.83,5.53.65,7.06v.02c-.07.54-.21,1.11-.45,1.86-1.48,4.63-4.67,11.79-3.87,14.2.21.63,6.94,14.55,8.24,18.45Z"/>
      <path class="cls-26" d="m1442.1,297.94c.14-.04.29-.08.45-.12-.16.04-.32.08-.46.12h0Z"/>
      <path class="cls-26" d="m1465.34,296.78c.21.22.48.39.78.51-.3-.13-.56-.3-.78-.51Z"/>
      <path class="cls-26" d="m1466.11,297.29c.11.05.22.09.33.12-.11-.03-.23-.07-.33-.12Z"/>
      <path class="cls-26" d="m1500.76,357.03s5.3,1.37,6.02,2.11c.72.74,2.8,6.48,2.07,6.54-3.8.28-5.8-1.76-5.8-1.76-2.3-2.53-5.72-2.93-5.55-4.78.17-1.85,3.26-2.11,3.26-2.11Z"/>
      <path class="cls-26" d="m1433.17,346.89s-3.84,4.85-3.84,5.73.78,4.56,1.71,4.61c.93.05,1.24-3,1.97-3.57.72-.57,3.31-1.64,3.68-2.63.36-.99.32-4.13.32-4.13h-3.83Z"/>
      <path class="cls-23" d="m1454.3,294.63c4.76-.61,10.56-5.31,10.56-5.31-3.38-1.84-6.32-2.01-8.6-1.38-.54.15-1.05.35-1.52.58l-.44,6.11Z"/>
      <g>
        <path class="cls-26" d="m1452.57,290.02s11.78,3.93,14.11-3.44c2.33-7.37,5.43-11.83-1.99-14.65-7.42-2.82-9.78-.47-11.16,1.8s-3.96,15.08-.96,16.29Z"/>
        <path class="cls-3" d="m1456.8,286.77s-.43.86-2.66.17c0,0-1.87-.58-1.57-1.56,0,0,2.01-.26,4.22,1.4Z"/>
      </g>
      <path class="cls-14" d="m1484.17,272.71c-1.32-1.69,3.01-5.19-5.79-9.39-6.67-3.19-8.74,1.64-9.35,4.16-3.97-2.26-10.44-8.79-14.57-4.54-4.95,5.09.42,9.57.42,9.57,1.88,1.37,2.79.99,5.53,1.59,2.74.6.99,3.78,1.2,4.85s2.09,3.23,4.62,2.14c2.54-1.09,2.24,3.08-.17,3.94-.69.24-1.4,4.09-.4,4.25.84.14,3.86.16,4.17-2.3.18-1.46,2.04-2.23,4.01-3.74,1.36,1.3,3.28,1.96,4.34,1.81,1.56-.22,1.57-1.47,4.91-3.7,3.34-2.23,2.39-6.94,1.08-8.63Z"/>
      <path class="cls-29" d="m1440.98,360.29c-6.63-1.71-10.27-4.83-7.36-8.14.83-.94,10-14.07,10-14.07,0,0,2.46,14.83-2.64,22.21Z"/>
    </g>
    <g>
      <g>
        <path class="cls-29" d="m1483.94,483.47l-.99-106.25s-.86-7.65-7.53-7.65c-7.12,0-7.53,7.65-7.53,7.65,0,0,.1.66.83.66s.89-.66.89-.66c0,0,.32-5.9,5.81-5.9,5.15,0,5.81,5.9,5.81,5.9v106.25h2.72Z"/>
        <path class="cls-29" d="m1480.31,483.47h4.43l-.39-4.63s.04-.64-.86-.68c-.83-.03-2.47-.15-2.63.35-.14.44-.55,4.96-.55,4.96Z"/>
      </g>
      <path class="cls-26" d="m1475.36,363.94l-.3,1.52s-7.51-.03-9.27,8.02c0,0-.48,3.35,1.94,2.63,2.42-.72,2.04-2.42,5.46-3.36,3.42-.94,5.65-1.65,6.17-4.14l.56-2.77-4.55-1.9Z"/>
      <path class="cls-7" d="m1501.93,298.06s-1.99,7.82-3.7,14.97c-.69,2.88-1.33,5.65-1.79,7.75-.46,2.16-.73,3.63-.63,3.79,1.49,2.42-1.23,17.17-3.39,22.52-.19.47-.45,1.03-.77,1.65-3.01,5.9-11.03,17.49-11.03,17.49,0,0-2.26.24-3.74-.32-1.23-.47-2.08-1.98-2.08-1.98.72-1.15,3.62-14.79,7.35-22.43,1.6-3.27,3.95-33.6,7.04-37.69,2.58-3.41,12.72-5.76,12.72-5.76Z"/>
      <path class="cls-24" d="m1495.81,324.57c1.49,2.42-1.23,17.17-3.39,22.52-.19.47-.45,1.03-.77,1.65-2.88-12.73,1.89-30.76,1.89-30.76,1.19.47,2.16,6.43,2.26,6.59Z"/>
      <path class="cls-19" d="m1516.66,471.77s.77,11.52-1.41,11.68c-.29.02-11.03.02-11.03.02h-13.86s.23-3.38,4.24-4.08c4.01-.7,10.72-3.52,13.15-8.82,2.56-5.57,8.91,1.2,8.91,1.2Z"/>
      <path class="cls-30" d="m1537.51,471.77s.77,11.52-1.41,11.68c-.29.02-11.03.02-11.03.02h-13.86s.23-3.38,4.24-4.08c4.01-.7,10.72-3.52,13.15-8.82,2.56-5.57,8.91,1.2,8.91,1.2Z"/>
      <path class="cls-31" d="m1517.32,444c.34,4.87,1.04,11.14.79,16.78-.35,7.9-.6,14.55-.6,14.55-5.21,1.77-14.76-.38-14.76-.38,0,0-3.39-19.95-6.18-35.88-1.25-7.14-2.29-13.31-2.68-16.23-1.26-9.42,1.34-59.53,1.34-59.53,0,0,14.09-9.03,19.91-4.37,5.82,4.65,9.4,9.2.02,60.19-.71,3.87,1.39,13.95,2.16,24.87Z"/>
      <path class="cls-29" d="m1517.32,444c.34,4.87.97,12.67.72,18.32-4.9-5.18-14.55-16.12-21.47-23.24-1.25-7.14-2.29-13.31-2.68-16.23-1.26-9.42,1.34-59.53,1.34-59.53,0,0,14.09-9.03,19.91-4.37,5.82,4.65,9.4,9.2.02,60.19-.71,3.87,1.39,13.95,2.16,24.87Z"/>
      <path class="cls-31" d="m1507.96,364.34s1.27,50.16,3.24,59.46c1.98,9.3,12.29,51.87,12.29,51.87,0,0,9.67.88,14.72-1.28,0,0-.32-19.72-2.04-31.3-1.6-10.82-4.47-20.72-4.06-24.63,5.43-51.55,1.51-55.81-4.65-60.01-6.16-4.19-19.51,5.89-19.51,5.89Z"/>
      <path class="cls-26" d="m1527.07,368.73s-3.35,6.72,3.09,11.86c0,0,2.79,1.91,3.22-.57.43-2.48-.07-1.62.61-5.1.67-3.48-.19-7.08-2.19-8.65l-4.73,2.46Z"/>
      <path class="cls-26" d="m1498.83,286.69s3.87,5.88,3.1,11.36l5.72,13.79,10.33-15.78s-5.45-5.94-7.49-14.03l-11.65,4.66Z"/>
      <path class="cls-26" d="m1497.14,291.71s14.08.61,14.34-7.84c.26-8.45,4.06-14.08-6.47-14.82-8.66-.61-11.54,3-12.31,5.8-.77,2.8-.77,16.41,4.45,16.86Z"/>
      <path class="cls-7" d="m1531.61,366.75c-3.03.28-7.19.63-12.25.95-1.01.06-2.05.13-3.13.19-15.26.85-21.33-1.62-21.33-1.62,0,0-.4-.33-.28-2.12.66-9.23,2.62-11.95,2.39-13.71-.53-3.94-10.09-36.11-10.09-36.11,0,0-.18-10.16,11.12-14.93,1.17-.49,2.45-.93,3.87-1.29.5,1.31,1.85,3.51,5.32,3.11,5.13-.6,8.78-3.62,10.35-5.17.28,0,.4,0,.4,0,.38,1.08.68,2.21.95,3.35.93,3.99,1.47,8.2,3.92,11.34,2.42,3.1,4.49,6.16,6.26,9.15,1.47,2.49,2.73,4.93,3.81,7.31,10,22.11,2.26,39.2-1.3,39.54Z"/>
      <path class="cls-24" d="m1531.61,366.75c-3.03.28-7.19.63-12.25.95-1.47-24.84,8.65-48.7,8.65-48.7.38.27.74.57,1.08.9,1.76,1.71,2.99,4.25,3.81,7.31,3.01,11.26.49,29.56-1.3,39.54Z"/>
      <path class="cls-10" d="m1492.6,283.64s-2.74,10.88,1.91,12.41c4.65,1.53,17,.3,17-13.03,0,0-6.48,3.87-9.58,3.77s-5.09-1.88-7.96-.49c0,0-1.05-.07-1.38-2.66Z"/>
      <path class="cls-7" d="m1517.98,296.06s9.84.22,15.05,6.99c3.99,5.19,8.2,33.01,8.2,37.2s-4.49,27.31-7,29.82c0,0-1.63.42-3.8,0-2.3-.44-3.66-1.78-3.66-1.78,0,0,1.25-25.74,1.25-28.16,0-3.5-10.93-24.89-10.93-24.89,0,0-5.67-10.18.89-19.18Z"/>
      <path class="cls-10" d="m1510.81,271.67c-.24-.86-1.3-1.32-1.3-1.32-7.93-3.45-13.73.33-13.73.33,4.86-6.53,16.59-5.16,19.07.73,4.04,9.61-3.35,11.61-3.35,11.61,0,0-7.37-3.1-3.1-6.98,1.41-1.29,2.1-2.43,2.32-3.43h0c.08-.33.1-.65.08-.95Z"/>
      <path class="cls-3" d="m1498.24,288.82s-.26.92-2.57.68c0,0-1.94-.2-1.84-1.23,0,0,1.92-.65,4.42.54Z"/>
    </g>
  </g>
</svg>